# xmcd
#
# Track frame offsets:
#	150
#	13058
#	33271
#	43151
#	55540
#	75945
#	88656
#	98471
#	111490
#	128572
#	140009
#	156490
#
# Disc length: 2238 seconds
#
# Revision: 0
# Processed by: cddbd v1.5.1PL0 Copyright (c) Steve Scherf et al.
# Submitted via: dBpowerAMP V4.0
#
DISCID=9108bc0c
DTITLE=Darrell McCall - Old Memories And Wine
DYEAR=2004
DGENRE=Country
TTITLE0=Old Memories And Wine
TTITLE1=Mary Dear
TTITLE2=On This Mountain Top
TTITLE3=I Miss You Already
TTITLE4=The Deepening Snow (vocals by Mona McCall)
TTITLE5=April First
TTITLE6=Divorce Me C.O.D.
TTITLE7=When Your House Is Not A Home
TTITLE8=I Feel Like Crying
TTITLE9=May Time My Lady
TTITLE10=The French Song (vocals by Mona McCall)
TTITLE11=Answer The Phone
EXTD=
EXTT0=
EXTT1=
EXTT2=
EXTT3=
EXTT4=
EXTT5=
EXTT6=
EXTT7=
EXTT8=
EXTT9=
EXTT10=
EXTT11=
PLAYORDER=
